<?xml version="1.0" encoding="UTF-8"?><svg xmlns="http://www.w3.org/2000/svg" viewBox="0 0 1024 768"><defs><style>.cls-1{font-size:45px;letter-spacing:-.01em;}.cls-1,.cls-2{font-family:Arial-BoldMT, Arial;}.cls-3{fill:none;stroke:#000;stroke-miterlimit:10;stroke-width:1.5px;}.cls-2{font-size:43px;letter-spacing:-.01em;}.cls-4{font-family:Sligoil-Micro, Sligoil;font-size:20px;}</style></defs><g id="Ebene_1"><text class="cls-2" transform="translate(344.2 204.16)"><tspan x="0" y="0">Choose a Colour</tspan></text><text class="cls-4" transform="translate(416 263.49)"><tspan x="0" y="0">Wähle eine Farbe</tspan></text><text class="cls-1" transform="translate(478.57 607.78)"><tspan x="0" y="0">OK</tspan></text></g><g id="Ebene_3"><g><g><line class="cls-3" x1="531.26" y1="96.96" x2="492.74" y2="96.96"/><polyline class="cls-3" points="492.74 96.96 490.57 96.96 490.57 146.61 533.43 146.61 533.43 96.96 531.26 96.96"/><path class="cls-3" d="M531.26,96.96c.04-.64,.07-1.29,.07-1.95,0-13.34-8.65-24.15-19.33-24.15s-19.33,10.81-19.33,24.15c0,.66,.03,1.3,.07,1.95"/></g><rect class="cls-3" x="507.36" y="116.04" width="25.97" height="18.27"/></g><g><rect class="cls-3" x="162.96" y="350.93" width="106.14" height="106.14"/><rect class="cls-3" x="310.95" y="350.93" width="106.14" height="106.14"/><rect class="cls-3" x="458.93" y="350.93" width="106.14" height="106.14"/><rect class="cls-3" x="606.91" y="350.93" width="106.14" height="106.14"/><rect class="cls-3" x="754.9" y="350.93" width="106.14" height="106.14"/></g></g></svg>