<?xml version="1.0" encoding="UTF-8"?><svg xmlns="http://www.w3.org/2000/svg" viewBox="0 0 1024 768"><defs><style>.cls-1{font-size:45px;letter-spacing:-.01em;}.cls-1,.cls-2{font-family:Arial-BoldMT, Arial;}.cls-3{stroke-miterlimit:10;}.cls-3,.cls-4{fill:none;stroke:#000;stroke-width:1.5px;}.cls-2{font-size:43px;letter-spacing:-.01em;}.cls-5{font-family:Sligoil-Micro, Sligoil;font-size:20px;}.cls-4{stroke-linecap:round;}</style></defs><g id="Ebene_1"><text class="cls-2" transform="translate(45.04 81.87)"><tspan x="0" y="0">Draw a building you dont like, </tspan><tspan x="0" y="40">but you have to enter everyday</tspan></text><text class="cls-5" transform="translate(45.04 169.49)"><tspan x="0" y="0">Zeichne ein Gebäude welches du nicht magst, </tspan><tspan x="0" y="23">du aber täglich betreten musst</tspan></text><text class="cls-1" transform="translate(904.19 716.72)"><tspan x="0" y="0">OK</tspan></text></g><g id="Ebene_3"><g><polygon class="cls-3" points="72.99 397.38 72.99 468.05 61.25 468.05 61.25 397.38 67.12 385.25 72.99 397.38"/><line class="cls-3" x1="61.2" y1="397.68" x2="72.94" y2="397.68"/><line class="cls-3" x1="70.59" y1="391.93" x2="63.54" y2="391.93"/></g><g><g><line class="cls-3" x1="86.39" y1="530.99" x2="47.86" y2="530.99"/><polyline class="cls-3" points="47.86 530.99 45.7 530.99 45.7 580.64 88.55 580.64 88.55 530.99 86.39 530.99"/><path class="cls-3" d="M86.39,530.99c.04-.64,.07-1.29,.07-1.95,0-13.34-8.65-24.15-19.33-24.15s-19.33,10.81-19.33,24.15c0,.66,.03,1.3,.07,1.95"/></g><rect class="cls-3" x="62.48" y="550.07" width="25.97" height="18.27"/></g><g><rect class="cls-4" x="46.93" y="678.03" width="32.69" height="34.47" transform="translate(-473.09 248.38) rotate(-45)"/><rect class="cls-4" x="72.95" y="663.58" width="12.87" height="31.14" transform="translate(-456.98 255.05) rotate(-45)"/></g></g></svg>