<?xml version="1.0" encoding="UTF-8"?><svg xmlns="http://www.w3.org/2000/svg" viewBox="0 0 1024 768"><defs><style>.cls-1{font-size:45px;letter-spacing:-.01em;}.cls-1,.cls-2{font-family:Arial-BoldMT, Arial;}.cls-3{fill:none;stroke:#000;stroke-miterlimit:10;stroke-width:1.5px;}.cls-2{font-size:43px;letter-spacing:-.01em;}.cls-4{font-family:Sligoil-Micro, Sligoil;font-size:20px;}</style></defs><g id="Ebene_1"><text class="cls-1" transform="translate(478.57 607.78)"><tspan x="0" y="0">OK</tspan></text></g><g id="Ebene_3"><g><rect class="cls-3" x="163.12" y="350.93" width="106.14" height="106.14"/><rect class="cls-3" x="311.03" y="350.93" width="106.14" height="106.14"/><rect class="cls-3" x="458.93" y="350.93" width="106.14" height="106.14"/><rect class="cls-3" x="606.83" y="350.93" width="106.14" height="106.14"/><rect class="cls-3" x="754.74" y="350.93" width="106.14" height="106.14"/></g><g><circle class="cls-3" cx="216.19" cy="404" r="3.31"/><circle class="cls-3" cx="364.1" cy="404" r="6.63"/><circle class="cls-3" cx="512" cy="404" r="13.26"/><circle class="cls-3" cx="659.9" cy="404" r="26.52"/><circle class="cls-3" cx="807.81" cy="404" r="53.04"/></g><text class="cls-2" transform="translate(303.56 204.14)"><tspan x="0" y="0">Choose a Brush Size</tspan></text><text class="cls-4" transform="translate(380 263.02)"><tspan x="0" y="0">Wähle eine Pinselgröße</tspan></text><g><polygon class="cls-3" points="541.27 131.13 470.6 131.13 470.6 119.39 541.27 119.39 553.4 125.26 541.27 131.13"/><line class="cls-3" x1="540.97" y1="119.33" x2="540.97" y2="131.07"/><line class="cls-3" x1="546.73" y1="128.72" x2="546.73" y2="121.67"/></g></g></svg>